<svg width="70" height="70" viewBox="0 0 70 70" fill="none" xmlns="http://www.w3.org/2000/svg">
<g clip-path="url(#clip0_67_73)">
<path d="M66.0504 0.0684814L60.2275 63.1387L34.9996 69.9315L9.77133 63.1387L3.94971 0.0684814H66.0504ZM54.317 12.8928H34.9769H15.2942L16.2355 20.5092H34.9769H36.0297L34.9769 20.9473L16.9205 28.4677L17.5193 35.9124L34.9769 35.969L44.3337 35.9987L43.7347 45.9253L34.9768 48.391V48.3832L34.905 48.4032L26.4471 46.2681L25.9338 40.1062H25.9058H18.0606H18.033L19.0599 52.0016L34.9771 56.7087V56.7002L35.0058 56.7087L50.8377 52.0874L52.8913 28.4677H34.9771H34.9329L34.9771 28.4486L53.5476 20.5092L54.317 12.8928Z" fill="white"/>
</g>
<defs>
<clipPath id="clip0_67_73">
<rect width="70" height="70" fill="white"/>
</clipPath>
</defs>
</svg>
