<svg width="70" height="70" viewBox="0 0 70 70" fill="none" xmlns="http://www.w3.org/2000/svg">
<g clip-path="url(#clip0_67_63)">
<g clip-path="url(#clip1_67_63)">
<path d="M68.6139 38.253L38.2527 68.6134C36.4943 70.3703 33.6461 70.3703 31.8899 68.6134L1.3864 38.112C-0.370986 36.355 -0.370986 33.506 1.3864 31.7473L22.3016 10.8329L30.2222 18.7547C29.41 20.7001 29.7912 23.0248 31.3755 24.6078C31.8933 25.1271 32.4902 25.5149 33.1281 25.7759V44.9572C32.4902 45.2188 31.8923 45.6088 31.3755 46.1251C29.2841 48.2162 29.2841 51.6036 31.3755 53.697C33.4647 55.7882 36.8544 55.7882 38.946 53.697C41.0372 51.6036 41.0372 48.2162 38.946 46.1251C38.5209 45.7021 38.0397 45.3655 37.5299 45.1131L37.5305 26.1078L44.7528 33.3301C43.9562 35.268 44.3451 37.5785 45.9177 39.1523C48.0106 41.2446 51.3985 41.2446 53.4909 39.1523C55.582 37.0606 55.582 33.6727 53.4909 31.5819C51.9945 30.0832 49.8328 29.6658 47.9595 30.3114L40.2158 22.5678C40.8623 20.6938 40.442 18.5344 38.9462 17.037C37.4577 15.5484 35.3168 15.1255 33.4493 15.756L25.4147 7.72121L31.7483 1.38662C33.506 -0.370491 36.3552 -0.370491 38.1103 1.38662L68.6139 31.8883C70.3707 33.6454 70.3707 36.4954 68.6139 38.253Z" fill="white"/>
</g>
</g>
<defs>
<clipPath id="clip0_67_63">
<rect width="70" height="70" fill="white"/>
</clipPath>
<clipPath id="clip1_67_63">
<rect width="70" height="70" fill="white"/>
</clipPath>
</defs>
</svg>
