<svg width="70" height="70" viewBox="0 0 70 70" fill="none" xmlns="http://www.w3.org/2000/svg">
<g clip-path="url(#clip0_67_104)">
<path d="M4.19897 0.0684814L9.80499 62.948L34.9621 69.9313L60.1887 62.9382L65.8009 0.0684814H4.19897ZM54.1069 14.9906L53.756 18.9003L53.6017 20.634H53.5762H34.9999H34.973H24.0903L24.7951 28.531H34.973H34.9999H50.8214H52.8997L52.7114 30.6017L50.8992 50.9053L50.7832 52.2073L34.9999 56.5816V56.5832L34.9645 56.5931L19.1671 52.2074L18.0866 40.0988H21.6547H25.8282L26.3772 46.2492L34.9659 48.5686L34.973 48.5667V48.5659L43.5748 46.2448L44.4692 36.2428H34.9999H34.973H17.7421L15.8467 14.9906L15.662 12.922H34.9731H34.9999H54.2915L54.1069 14.9906Z" fill="white"/>
</g>
<defs>
<clipPath id="clip0_67_104">
<rect width="70" height="70" fill="white"/>
</clipPath>
</defs>
</svg>
