<svg width="70" height="70" viewBox="0 0 70 70" fill="none" xmlns="http://www.w3.org/2000/svg">
<g clip-path="url(#clip0_67_23)">
<g clip-path="url(#clip1_67_23)">
<path fill-rule="evenodd" clip-rule="evenodd" d="M53.648 64.5125C47.5405 64.5125 43.5925 61.6007 41.6675 57.7927L47.0225 54.6909C48.433 56.9939 50.2635 58.6848 53.508 58.6848C56.231 58.6848 57.9705 57.3224 57.9705 55.4429C57.9705 52.6149 54.1975 51.5099 51.534 50.3689C46.788 48.3494 43.638 45.8119 43.638 40.4534C43.638 35.5219 47.397 31.7632 53.2735 31.7632C57.4525 31.7632 60.4625 33.2189 62.622 37.0234L57.5014 40.3132C56.3744 38.2937 55.153 37.4951 53.2735 37.4951C51.345 37.4951 50.1236 38.7172 50.1236 40.3132C50.1236 42.2872 51.345 43.0856 54.166 44.3071C60.0775 46.8411 64.5505 48.8319 64.5505 55.3489C64.5505 61.2709 59.899 64.5125 53.648 64.5125ZM38.5 54.5969C38.5 61.4114 34.3035 65.0132 28.476 65.0132C23.212 65.0132 20.0585 63 18.508 59.5H18.4555H18.431H18.417L23.7684 55.759C24.8009 57.5895 25.732 58.8882 27.986 58.8882C30.149 58.8882 31.5 57.7928 31.5 54.5063V31.5H38.5V54.5969ZM0 70H70V0H0V70Z" fill="white"/>
</g>
</g>
<defs>
<clipPath id="clip0_67_23">
<rect width="70" height="70" fill="white"/>
</clipPath>
<clipPath id="clip1_67_23">
<rect width="70" height="70" fill="white"/>
</clipPath>
</defs>
</svg>
