<svg width="70" height="70" viewBox="0 0 70 70" fill="none" xmlns="http://www.w3.org/2000/svg">
<g clip-path="url(#clip0_67_43)">
<path d="M34.6085 50.7172C34.6085 50.7172 34.6085 28.0525 35.361 28.0547C35.9428 28.0547 36.6997 57.2906 36.6997 57.2906C35.6585 57.1681 34.6085 52.4803 34.6085 50.7172ZM49.1947 28.3172C47.1844 19.5322 42.781 11.9787 36.7085 6.14905L36.6931 6.13593C35.9538 5.00718 35.2778 3.71218 34.7353 2.34718L34.6828 2.19843C34.685 2.24218 34.685 2.29468 34.685 2.34718C34.685 3.58311 34.1316 4.6878 33.2588 5.42936L33.2522 5.43374C25.4341 12.0706 20.4597 21.8509 20.2956 32.795V32.8234C20.2935 32.9591 20.2935 33.1187 20.2935 33.2784C20.2935 44.1219 25.5106 53.7469 33.5716 59.78L33.6569 59.8412L33.8472 59.9791C34.1987 62.5807 34.4991 65.1882 34.7485 67.8016H36.0631C36.4263 64.54 36.9163 61.6853 37.5572 58.8853L37.4566 59.4081C38.3228 58.8066 39.0797 58.1831 39.7863 57.5072L39.7797 57.5137C45.9069 51.8328 49.7306 43.7391 49.7306 34.755C49.7306 34.6216 49.7306 34.4903 49.7285 34.3569V34.3766C49.7219 32.2306 49.5272 30.1328 49.1575 28.0962L49.1903 28.3128L49.1947 28.3172Z" fill="white"/>
</g>
<defs>
<clipPath id="clip0_67_43">
<rect width="70" height="70" fill="white"/>
</clipPath>
</defs>
</svg>
