<svg width="70" height="70" viewBox="0 0 70 70" fill="none" xmlns="http://www.w3.org/2000/svg">
<g clip-path="url(#clip0_67_33)">
<path d="M35 28.7569C31.5591 28.7569 28.7569 31.5591 28.7569 35C28.7569 38.441 31.5591 41.2431 35 41.2431C38.4409 41.2431 41.2431 38.441 41.2431 35C41.2431 31.5591 38.4409 28.7569 35 28.7569ZM17.5219 47.4075L16.1438 47.0663C5.88875 44.4675 0 40.0706 0 34.9891C0 29.9075 5.89094 25.5106 16.1438 22.9119L17.5219 22.5706L17.9091 23.9378C18.9459 27.5144 20.2781 31.0013 21.8859 34.3744L22.1813 34.9891L21.8859 35.6147C20.2803 38.9747 18.9459 42.4616 17.9091 46.0513L17.5219 47.4075ZM15.5072 26.1013C7.71313 28.2888 2.92906 31.6488 2.92906 34.9891C2.92906 38.3294 7.71531 41.6763 15.5072 43.8769C16.4653 40.8341 17.6159 37.8722 18.9591 34.9891C17.6137 32.106 16.4631 29.1441 15.5072 26.1013ZM52.4781 47.4075L52.0909 46.0403C51.0541 42.4638 49.7219 38.9769 48.1141 35.6147L47.8188 34.9891L48.1141 34.3635C49.7197 31.0035 51.0541 27.5166 52.0909 23.9269L52.4781 22.5706L53.8563 22.9119C64.1113 25.5106 70 29.9075 70 34.9891C70 40.0706 64.1091 44.4675 53.8563 47.0663L52.4781 47.4075ZM51.0409 34.9891C52.4431 38.0188 53.6047 40.9938 54.4928 43.8769C62.2978 41.6785 67.0709 38.3294 67.0709 34.9891C67.0709 31.6488 62.2847 28.3019 54.4928 26.1013C53.5347 29.131 52.3841 32.106 51.0409 34.9891ZM15.4831 26.0903L15.0959 24.7231C12.2128 14.56 13.09 7.26908 17.5 4.7272C21.8291 2.23126 28.7678 5.1822 36.0478 12.6569L37.0387 13.6719L36.0478 14.6869C33.4622 17.3753 31.1041 20.2694 28.9844 23.345L28.5862 23.9028L27.9016 23.9597C24.1763 24.255 20.4838 24.8478 16.8613 25.7381L15.4831 26.0903ZM21.0197 6.7572C20.2344 6.7572 19.5388 6.91689 18.9569 7.25814C16.0628 8.93376 15.5509 14.7438 17.5438 22.5816C20.6544 21.886 23.7978 21.396 26.9784 21.1116C28.8006 18.5128 30.8066 16.03 32.9591 13.6938C28.4134 9.26189 24.1063 6.7572 21.0197 6.7572ZM48.9912 66.1369C48.9803 66.1369 48.9803 66.1369 48.9912 66.1369C44.8328 66.1369 39.4887 63.0153 33.9522 57.3191L32.9612 56.3041L33.9522 55.2891C36.5378 52.6006 38.8959 49.7066 41.0156 46.631L41.4028 46.0731L42.0875 46.0053C45.8128 45.721 49.5053 45.1281 53.1387 44.2269L54.5169 43.8856L54.9041 45.2528C57.7872 55.416 56.91 62.696 52.5 65.2356C51.4281 65.8503 50.2206 66.1609 48.9912 66.1369ZM37.0387 56.2822C41.5844 60.7141 45.8916 63.2209 48.9781 63.2209H48.9891C49.7634 63.2209 50.4591 63.0503 51.0409 62.72C53.935 61.0444 54.46 55.2344 52.4541 47.3966C49.3434 48.0922 46.1869 48.5822 43.0194 48.8556C41.1972 51.4653 39.1912 53.935 37.0387 56.2822ZM54.5169 26.0903L53.1387 25.7381C49.5053 24.85 45.8128 24.2572 42.0875 23.9597L41.4028 23.9028L41.0156 23.345C38.8959 20.2694 36.5378 17.3753 33.9522 14.6869L32.9612 13.6719L33.9522 12.6569C41.2322 5.1822 48.1709 2.23126 52.5 4.7272C56.91 7.26689 57.7872 14.56 54.9041 24.7231L54.5169 26.0903ZM43.0216 21.1116C46.3487 21.42 49.5162 21.91 52.4562 22.5816C54.4622 14.7438 53.9372 8.93158 51.0431 7.25814C48.16 5.59564 42.7372 8.14626 37.0409 13.696C39.1934 16.0431 41.1884 18.515 43.0216 21.1138V21.1116ZM21.0197 66.1369C19.7881 66.1588 18.5697 65.8525 17.5 65.2378C13.09 62.6981 12.2128 55.416 15.0959 45.255L15.4831 43.8878L16.8613 44.2291C20.2344 45.0844 23.9488 45.675 27.9016 46.0075L28.5862 46.0753L28.9734 46.6331C31.0931 49.7088 33.4513 52.6028 36.0369 55.2913L37.0278 56.3063L36.0369 57.3213C30.5113 63.0175 25.1672 66.1391 21.0197 66.1391V66.1369ZM17.5459 47.3966C15.54 55.2344 16.065 61.0466 18.9591 62.72C21.8422 64.3606 27.2541 61.8319 32.9612 56.2822C30.8087 53.935 28.8028 51.4631 26.9806 48.8535C23.8022 48.58 20.6566 48.0922 17.5459 47.3966ZM35 49.2297C32.5959 49.2297 30.135 49.1269 27.6631 48.9213L26.9784 48.8644L26.5803 48.2956C25.1913 46.2897 23.8678 44.2291 22.6494 42.1094C21.4178 39.9897 20.2912 37.8263 19.2434 35.6147L18.9481 34.9891L19.2434 34.3635C20.2912 32.1541 21.42 29.9885 22.6494 27.8688C23.8569 25.7841 25.1781 23.6994 26.5803 21.6825L26.9784 21.1138L27.6631 21.0569C32.55 20.6456 37.4609 20.6456 42.3369 21.0569L43.0216 21.1138L43.4197 21.6825C46.2109 25.6922 48.6719 29.9425 50.7566 34.3635L51.0519 34.9891L50.7566 35.6147C48.6719 40.0356 46.2219 44.2859 43.4197 48.2956L43.0216 48.8644L42.3369 48.9213C39.8759 49.1269 37.4041 49.2297 35 49.2297ZM28.5972 46.0622C32.9044 46.3925 37.0956 46.3925 41.4137 46.0622C43.8178 42.5425 45.9594 38.8391 47.8166 34.9869C45.9703 31.1369 43.8288 27.4335 41.4028 23.9116C37.1416 23.5813 32.8584 23.5813 28.5972 23.9116C26.1712 27.4313 24.0275 31.1347 22.1834 34.9869C24.0406 38.8369 26.1822 42.5403 28.5972 46.0622Z" fill="white"/>
</g>
<defs>
<clipPath id="clip0_67_33">
<rect width="70" height="70" fill="white"/>
</clipPath>
</defs>
</svg>
