<svg width="70" height="70" viewBox="0 0 70 70" fill="none" xmlns="http://www.w3.org/2000/svg">
<g clip-path="url(#clip0_67_53)">
<path fill-rule="evenodd" clip-rule="evenodd" d="M34.9999 17.605C27.2212 17.605 22.362 21.4696 20.4166 29.2016C23.3333 25.3371 26.737 23.8875 30.6249 24.8529C32.8445 25.4041 34.4312 27.0054 36.1841 28.7758C39.0453 31.6604 42.3558 35 49.5832 35C57.362 35 62.2212 31.1354 64.1666 23.4033C61.2499 27.2679 57.8491 28.7175 53.9582 27.7521C51.7387 27.2008 50.152 25.5996 48.3962 23.8291C45.5378 20.9416 42.2303 17.605 34.9999 17.605ZM20.4166 35C12.6378 35 7.77867 38.8646 5.83325 46.5966C8.74992 42.7291 12.1537 41.2825 16.0416 42.2479C18.2612 42.7991 19.8478 44.4004 21.6037 46.1708C24.462 49.0554 27.7724 52.395 35.0028 52.395C42.7816 52.395 47.6407 48.5304 49.5862 40.7983C46.6695 44.6629 43.2658 46.1125 39.3778 45.1471C37.1583 44.5958 35.5716 42.9946 33.8187 41.2241C30.9545 38.3396 27.6441 35 20.4166 35Z" fill="white"/>
</g>
<defs>
<clipPath id="clip0_67_53">
<rect width="70" height="70" fill="white"/>
</clipPath>
</defs>
</svg>
