<svg width="24" height="17" viewBox="0 0 24 17" fill="none" xmlns="http://www.w3.org/2000/svg">
<path fill-rule="evenodd" clip-rule="evenodd" d="M21 3.5C21 3.22386 20.7761 3 20.5 3C20.2239 3 20 3.22386 20 3.5V13.5C20 13.7761 20.2239 14 20.5 14C20.7761 14 21 13.7761 21 13.5V3.5ZM14.8536 3.14645C14.6583 2.95118 14.3417 2.95118 14.1464 3.14645C13.9512 3.34171 13.9512 3.65829 14.1464 3.85355L18.2929 8L3.5 8C3.22386 8 3 8.22386 3 8.5C3 8.77614 3.22386 9 3.5 9L18.2929 9L14.1464 13.1464C13.9512 13.3417 13.9512 13.6583 14.1464 13.8536C14.3417 14.0488 14.6583 14.0488 14.8536 13.8536L19.8536 8.85355C20.0488 8.65829 20.0488 8.34171 19.8536 8.14645L14.8536 3.14645Z" fill="white"/>
</svg>
