<svg width="70" height="70" viewBox="0 0 70 70" fill="none" xmlns="http://www.w3.org/2000/svg">
<g clip-path="url(#clip0_67_11)">
<g clip-path="url(#clip1_67_11)">
<path d="M64.821 0H5.16504C5.14637 0 5.12537 0 5.10203 0C2.30361 0 0.0326754 2.24993 0 5.03901V64.9563C0.0326754 67.7477 2.30361 70 5.10203 70C5.12537 70 5.14637 70 5.16971 70H64.814C64.8326 70 64.856 70 64.8793 70C67.6801 70 69.9557 67.7524 70 64.961V64.9563V5.04368C69.9557 2.24993 67.6801 0 64.877 0C64.8536 0 64.8326 0 64.8093 0H64.821ZM20.7605 59.6512H10.3651V26.25H20.7605V59.6512ZM15.5652 21.6801C12.2393 21.6801 9.54588 18.9844 9.54588 15.6608C9.54588 12.3373 12.2416 9.64157 15.5652 9.64157C18.8887 9.64157 21.5844 12.335 21.5844 15.6585C21.5844 15.6608 21.5844 15.6632 21.5844 15.6678C21.5844 18.9891 18.891 21.6824 15.5698 21.6824C15.5675 21.6824 15.5652 21.6824 15.5628 21.6824L15.5652 21.6801ZM59.6349 59.6512H49.2698V43.4092C49.2698 39.5349 49.1905 34.5519 43.869 34.5519C38.4636 34.5519 37.6397 38.767 37.6397 43.1245V59.6536H27.2746V26.2523H37.2313V30.8059H37.3666C39.2991 27.55 42.7954 25.4028 46.7935 25.4028C46.9359 25.4028 47.0759 25.4051 47.2159 25.4098H47.1949C57.6977 25.4098 59.6396 32.323 59.6396 41.3204V59.6536L59.6349 59.6512Z" fill="white"/>
</g>
</g>
<defs>
<clipPath id="clip0_67_11">
<rect width="70" height="70" fill="white"/>
</clipPath>
<clipPath id="clip1_67_11">
<rect width="70" height="70" fill="white"/>
</clipPath>
</defs>
</svg>
